Coordinates
version=1
nRows=18
nColumns=22
inDegrees=yes

Units are S.I. units (second, meters, Newtons, ...)
If the header above contains a line with 'inDegrees', this indicates whether rotational values are in degrees (yes) or radians (no).

endheader
time	pelvis_tilt	pelvis_list	pelvis_rotation	pelvis_tx	pelvis_ty	pelvis_tz	hip_flexion_r	hip_adduction_r	hip_rotation_r	knee_angle_r	ankle_angle_r	subtalar_angle_r	hip_flexion_l	hip_adduction_l	hip_rotation_l	knee_angle_l	ankle_angle_l	subtalar_angle_l	lumbar_extension	lumbar_bending	lumbar_rotation
      2.60000000	     -1.35830654	      4.17608210	     -6.90463424	     -0.05399519	      1.05238605	     -0.30185655	     -0.34789363	     -2.84050531	      1.75627842	    -28.22514941	     19.16877508	     -2.78684625	     22.91639075	      0.06163088	     -8.75006352	    -13.64718773	      8.75642198	      3.96657517	     -6.79911511	     -6.18290319	     -1.73295472
      2.61000000	     -1.35881249	      3.92572470	     -6.82347858	     -0.06378097	      1.05263971	     -0.30021982	     -0.09526324	     -2.44296132	      1.23093905	    -27.73014431	     19.51065166	     -3.39529720	     23.19070340	     -0.37807595	     -9.69099209	    -13.72652980	      9.30301952	      3.90759027	     -7.05721825	     -5.89389831	     -1.76936600
      2.62000000	     -1.34630846	      3.68429679	     -6.74270959	     -0.07331175	      1.05297847	     -0.29866551	      0.14447146	     -2.05251210	      0.79127087	    -27.25430979	     19.77601620	     -3.99151399	     23.48258263	     -0.81816536	    -10.77725817	    -14.03054575	      9.61586070	      3.82376301	     -7.29869172	     -5.61803668	     -1.81401413
      2.63000000	     -1.30609580	      3.43562308	     -6.66671726	     -0.08257302	      1.05343118	     -0.29715247	      0.34614555	     -1.65489574	      0.42350368	    -26.78479566	     19.96467279	     -4.51047042	     23.77322626	     -1.28294156	    -11.96186838	    -14.58068163	      9.71150090	      3.68266698	     -7.54253321	     -5.34631232	     -1.85548785
      2.64000000	     -1.24956906	      3.17728518	     -6.59364796	     -0.09158877	      1.05398742	     -0.29570233	      0.52220673	     -1.24726537	      0.12198006	    -26.32143120	     20.07791919	     -5.02042536	     24.06149205	     -1.77572344	    -13.18519767	    -15.35934464	      9.65259563	      3.45207683	     -7.78051508	     -5.06634022	     -1.91620693
      2.65000000	     -1.17049553	      2.90814724	     -6.52068146	     -0.10032842	      1.05467189	     -0.29429648	      0.64998042	     -0.83233173	     -0.14397847	    -25.83754956	     20.12015154	     -5.49153502	     24.32249008	     -2.29416779	    -14.36985824	    -16.34087907	      9.51876655	      3.11553746	     -8.01576536	     -4.78246458	     -1.97544818
      2.66000000	     -1.06657263	      2.61945683	     -6.45547802	     -0.10879739	      1.05551640	     -0.29290587	      0.71527314	     -0.39845995	     -0.36258112	    -25.31125766	     20.07568116	     -5.89159554	     24.52842477	     -2.84242499	    -15.44881280	    -17.47529109	      9.35591264	      2.71088463	     -8.24993304	     -4.48829499	     -2.03098290
      2.67000000	     -0.94411092	      2.31667101	     -6.39279061	     -0.11702587	      1.05650854	     -0.29155940	      0.72924068	      0.04322382	     -0.56677661	    -24.74731906	     19.95303154	     -6.24487689	     24.67504042	     -3.40365090	    -16.36962852	    -18.72473525	      9.22218224	      2.26197553	     -8.48028296	     -4.18549648	     -2.07678694
      2.68000000	     -0.81394093	      2.00373548	     -6.33386145	     -0.12504335	      1.05763538	     -0.29025065	      0.70522507	      0.48909388	     -0.76549150	    -24.14563445	     19.75434798	     -6.56153425	     24.76132938	     -3.96314617	    -17.09211437	    -20.04613008	      9.13862291	      1.78815110	     -8.69581758	     -3.87961019	     -2.10490727
      2.69000000	     -0.68573957	      1.68941729	     -6.27707129	     -0.13287978	      1.05887566	     -0.28899145	      0.65806994	      0.92876081	     -0.96362118	    -23.51053331	     19.48677262	     -6.83351931	     24.79352065	     -4.50250887	    -17.59926161	    -21.40718360	      9.10935243	      1.31708180	     -8.88633450	     -3.57980589	     -2.11318811
      2.70000000	     -0.54907534	      1.37127872	     -6.24625140	     -0.14058314	      1.06024519	     -0.28776967	      0.58178574	      1.36380924	     -1.12427642	    -22.84551339	     19.14537693	     -6.96197226	     24.75888161	     -5.02341338	    -17.89909296	    -22.79302478	      9.15435472	      0.99416349	     -9.07222299	     -3.28232735	     -2.07550169
      2.71000000	     -0.46488005	      1.07510187	     -6.18597062	     -0.14822625	      1.06159368	     -0.28667988	      0.57022032	      1.77210419	     -1.31752883	    -22.20109922	     18.75463078	     -7.22103744	     24.74834412	     -5.47220519	    -17.93372524	    -24.20082526	      9.19837393	      0.45673837	     -9.19290579	     -3.00295851	     -2.07824194
      2.72000000	     -0.36468223	      0.78856876	     -6.16476580	     -0.15578079	      1.06306072	     -0.28561767	      0.53313517	      2.16206045	     -1.44586239	    -21.54232210	     18.30381255	     -7.29267891	     24.66387364	     -5.88147477	    -17.79407730	    -25.60304966	      9.29915803	      0.16596576	     -9.32359466	     -2.74483639	     -2.01982084
      2.73000000	     -0.32420862	      0.52599811	     -6.11104608	     -0.16332389	      1.06445458	     -0.28471711	      0.59071131	      2.52137484	     -1.62092985	    -20.94071144	     17.83580459	     -7.42594576	     24.62673922	     -6.20670927	    -17.41050787	    -27.02411200	      9.39021863	     -0.26585072	     -9.38942480	     -2.50062401	     -2.01848164
      2.74000000	     -0.26423378	      0.28235119	     -6.08998510	     -0.17079210	      1.06593983	     -0.28387098	      0.62841191	      2.85282902	     -1.73864630	    -20.33996867	     17.32166819	     -7.45978380	     24.51754507	     -6.47046511	    -16.87957722	    -28.42348662	      9.49234682	     -0.53403065	     -9.47356075	     -2.28644739	     -1.95700404
      2.75000000	     -0.22806046	      0.06187266	     -6.05194930	     -0.17822417	      1.06739307	     -0.28315735	      0.71860734	      3.15290879	     -1.88772421	    -19.78933650	     16.78316014	     -7.48736145	     24.41045648	     -6.65548029	    -16.18669935	    -29.82359849	      9.58496178	     -0.80721888	     -9.53345413	     -2.09132647	     -1.93384258
      2.76000000	     -0.23361459	     -0.12282368	     -6.00478229	     -0.18563617	      1.06877087	     -0.28259219	      0.88654307	      3.41106223	     -2.04525145	    -19.29669017	     16.22776921	     -7.51225677	     24.32125089	     -6.74667660	    -15.34741991	    -31.21003893	      9.66813240	     -1.09486445	     -9.54820293	     -1.92534441	     -1.93794697
      2.77000000	     -0.19160279	     -0.29825652	     -5.97410896	     -0.19297706	      1.07020832	     -0.28209391	      1.00799797	      3.65041399	     -2.17733840	    -18.81637387	     15.66608853	     -7.50294149	     24.13883766	     -6.79354707	    -14.46567663	    -32.57494282	      9.75106087	     -1.25558766	     -9.61783421	     -1.77705048	     -1.92506528
